<svg viewBox="0 0 3113 1830" xmlns="http://www.w3.org/2000/svg" fill-rule="evenodd" clip-rule="evenodd" stroke-linejoin="round" stroke-miterlimit="2">
    <path fill="#ff8c00" d="M0 369.479c117.526-19.696 237.242-39.712 359-60.079 123.925-20.704 250.008-41.796 378.508-63.288-1.458 317.23-2.683 576.009-3.675 790.618-.82 181.01-1.579 335.91-2.162 469.76-76.617 6.16-152.446 12.26-227.313 18.31-74.166 5.98-147.575 11.85-220.166 17.72-30.746-126.93-66.163-273.1-107.305-442.95C128.446 899.554 70.396 660.138 0 369.479zm300.358 574.796V1293.1c0 33.52 7.85 64.65 23.546 93.41 15.709 28.82 37.638 51.83 65.8 69.14 28.138 17.32 59.892 26.23 95.25 26.69 38.309 0 71.554-9.14 99.775-27.53 28.221-18.34 49.684-42.72 64.384-73.18 14.745-30.42 22.104-62.92 22.104-97.52 0-26.75-4.746-51.22-14.25-73.46-9.475-22.23-22.85-41.41-40.075-57.38-17.259-16.03-37.305-28.27-60.15-36.67-22.863-8.47-47.275-12.68-73.259-12.68-33.275 0-63.262 8.29-89.996 24.94v69.67c16.38-10.19 31.48-17.96 45.276-23.22 13.783-5.22 30.22-7.82 49.316-7.82 18.846 0 36.996 4.38 54.425 13.19 17.45 8.82 31.888 22.55 43.333 41.23 11.463 18.64 17.755 41.88 18.85 69.76 0 19.68-4.395 39.39-13.212 59.1-8.804 19.71-22.237 35.97-40.296 48.76-18.029 12.82-40.104 19.25-66.225 19.25-23.533 0-44.267-5.99-62.179-17.9-17.913-12-31.725-28.09-41.392-48.36-9.662-20.23-14.508-42.57-14.508-66.95V944.275h-66.517zM1370.6 877.921c3.45 112.559 6.95 231.489 10.75 356.609 3.59 118.75 7.41 242.7 11.38 371.88-54.95-2.6-109.4-5.17-163.22-7.62-53.9-2.48-107.22-4.85-160.16-7.27-51.94-2.37-103.562-4.76-154.608-7.04-51.038-2.28-101.813-4.67-151.888-7.04 10.013-122.22 19.85-239.93 29.196-352.99 9.813-118.84 19.3-231.867 28.263-339.317 7.946-95.129 15.479-186.875 22.837-275.32 7.592-91.509 14.834-179.221 21.871-263.226 39.3-2.22 78.925-4.675 118.75-6.979 39.889-2.325 80.119-4.675 120.589-6.95 40.88-2.291 82.17-4.891 123.63-7.212 41.49-2.308 83.57-4.788 125.74-7.154 2.62 86.925 5.37 177.891 8.23 273.096 2.74 91.858 5.66 187.404 8.64 286.533zm-290.4 226.889c-118.358 0-188.896 84.68-188.896 189.13 0 104.47 64.996 189.15 188.896 189.15 119.9 0 188.9-80.97 188.9-189.15 0-111.35-70.66-189.13-188.9-189.13zm0 314.85c-77.64 0-118.371-56.25-118.371-125.64 0-69.4 44.201-125.65 118.371-125.65 74.09 0 118.37 51.67 118.37 125.65 0 71.86-43.24 125.64-118.37 125.64zm558.98-1287.568c45.73-19.725 93.23-40.225 142.61-61.629 50.86-22.03 103.71-45.067 158.84-69.013-2.57 158.858-5.14 312.212-7.53 460.338-2.51 156.812-4.79 306.87-7.07 450.033-1.98 126.959-4 249.949-5.78 368.809-1.87 123.81-3.59 243.03-5.2 357.4-43.74-6.66-86.13-13.43-127.07-19.65-40-6.1-78.78-12.26-116.28-18.08-36.43-5.63-71.82-11.21-106.05-16.55-33.52-5.23-66.22-10.45-97.84-15.36-5.31-96.62-10.72-196.71-16.23-299.84-5.29-98.79-10.66-200.22-16.15-304.2a445911.82 445911.82 0 01-19.22-362.817c-6.21-118.166-12.7-239.691-19.21-364.271 37.03-16.058 75.57-32.816 115.34-50.029 40.76-17.65 82.98-36.22 126.84-55.141zm173.75 1038.248v-66.41h-156.5c-33.76 0-62.9 7.59-87.43 22.67-24.46 15.12-36.76 41.51-36.76 79.21.76 28.1 9.43 50.11 25.99 65.96 16.56 15.82 42.42 29.93 77.67 42.4 1.78.51 14.66 4.51 38.86 11.94 24.12 7.47 41.47 13.5 51.98 18.02 10.54 4.63 19.21 10.27 26.04 17.03 6.86 6.74 10.25 14.75 10.25 23.99-.61 12.74-4.99 21.3-13.11 25.63-8.12 4.39-20.1 6.8-35.27 6.8h-182.41v64.77h180.89c74.28 0 113.67-32.89 118.11-98.72 0-29.75-9.43-54.32-28.29-73.76-18.81-19.48-49.26-35.48-91.28-47.94-12.79-3.23-25.17-6.34-37.14-9.39a267.554 267.554 0 01-34.28-10.98c-10.92-4.32-19.8-9.56-26.75-15.72-7-6.16-10.86-13.38-11.59-21.61 0-10.52 3.59-18.84 10.84-24.84 7.18-6.1 17.42-9.05 30.71-9.05h169.47zm670.28-291.69c18.75 117.118 38.78 242.88 60.44 377.72 25.17 157.18 52.68 327.29 82.34 510.87-56.88-.26-113.29-1-168.94-1.44-55.25-.43-110.26-1.28-164.45-1.66-53.49-.41-106.75-1.19-159.08-1.61-52.15-.4-104-1.16-155.16-1.66-2.28-173.88-4.09-335.09-5.73-484.53-1.45-129.47-2.62-250-3.79-362.652-1.17-114.517-2.34-222.146-3.33-323.467-.88-87.058-1.75-169.209-2.51-246.438 34.34-4.262 68.97-8.483 103.83-12.733 34.75-4.233 69.84-8.338 105.06-12.613 35.79-4.349 71.83-8.641 108.1-13.037 36.2-4.379 72.7-8.979 109.49-13.517a348060.09 348060.09 0 0040.12 251.867c16.7 104.779 34.57 216.408 53.61 334.9zm-104.99 291.69v-66.41h-156.51c-33.75 0-62.89 7.59-87.42 22.67-24.47 15.12-36.79 41.51-36.79 79.21.76 28.1 9.46 50.11 25.99 65.96 16.58 15.82 42.46 29.93 77.7 42.4 1.75.51 14.65 4.51 38.83 11.94 24.12 7.47 41.49 13.5 52.01 18.02 10.5 4.63 19.21 10.27 26.01 17.03 6.86 6.74 10.28 14.75 10.28 23.99-.62 12.74-4.99 21.3-13.14 25.63-8.09 4.39-20.69 6.8-35.27 6.8H2097.5v64.77h180.92c74.28 0 113.64-32.89 118.11-98.72 0-29.75-9.43-54.32-28.3-73.76-18.86-19.48-49.26-35.48-91.27-47.94-12.82-3.23-25.17-6.34-37.14-9.39a266.047 266.047 0 01-34.28-10.98c-10.92-4.32-19.8-9.56-26.78-15.72s-10.83-13.38-11.59-21.61c0-10.52 3.62-18.84 10.86-24.84 7.18-6.1 17.43-9.05 30.72-9.05h169.47zm565.63-744.511c54.37-9.312 109.68-18.975 165.33-28.262a124415.06 124415.06 0 01-3.85 371.471c-1.29 102.283-2.4 199.312-3.74 291.172-.76 48.67-1.41 96.24-2.16 142.46-.76 44.18-1.4 87.31-1.99 129.29-.59 38.17-1.11 75.31-1.69 111.69-.53 34.72-.94 68.53-1.29 101.65-40.82 1.83-81.35 3.55-121.35 5.34-40.01 1.81-79.66 3.56-118.96 5.37-38.65 1.75-77.03 3.42-114.93 5.11-37.89 1.67-75.62 3.42-112.76 4.93-4.32-31.18-8.58-63.06-13.03-95.65-4.67-34.05-9.34-69.12-14.24-104.82-11.04-80.36-22.6-164.72-34.63-252.35-11.74-85.31-24.24-174.897-37.26-269.151-14.78-106.929-30.43-219.625-46.66-338.812 49.06-8.163 98.87-16.904 149.26-25.638 50.57-8.758 102.03-17.242 153.82-26.133 52.74-9.038 106.17-18.396 160.13-27.667zm68.46 1056.511v-211.96c0-22.13-3.91-43.24-11.7-63.24-7.86-20.06-19.42-37.76-34.84-53.23-15.36-15.48-34.6-27.68-57.67-36.59-23.15-8.93-49.14-13.4-78.05-13.4-40.38 0-74.98 8.35-103.77 25.02-28.88 16.71-50.58 39.22-65.17 67.48-14.54 28.27-21.84 59.48-21.84 93.76 0 38.05 8.58 71.71 25.81 100.97 17.22 29.29 39.65 51.77 67.21 67.57 27.57 15.74 56.27 23.62 86.17 23.62 17.02-.47 30.98-2.22 41.87-5.14 10.9-3.01 19.62-6.28 26.08-9.84 6.42-3.56 16.87-9.9 31.3-19.01V1368c-27.1 33.84-58.14 50.77-93.12 50.77-20.32 0-39.62-5.08-57.96-15.33-18.25-10.22-32.96-25.07-44.12-44.55-11.18-19.42-16.7-42.34-16.7-68.71.47-29.43 7.15-53.37 20-71.77 12.88-18.42 28.38-31.53 46.49-39.28 18.1-7.79 35.5-11.64 52.29-11.64 23.92 0 44.71 4.23 62.34 12.73 17.67 8.49 31.42 20.17 41.14 35.04 9.73 14.86 15.07 31.44 16.06 49.78v217.3h68.18z" fill-rule="nonzero" />
</svg>
