<?xml version="1.0" encoding="UTF-8" standalone="yes"?>
<svg xmlns="http://www.w3.org/2000/svg" xmlns:xlink="http://www.w3.org/1999/xlink"
  width="506pt" height="168pt" viewBox="0 0 506 168" fill-rule="evenodd">
  <g>
    <path style="stroke:none; fill:#C8468C" d="M 369.9 8.09999C 368.1 11.5 369.5 17.7 373.3 23.3C 377.7 29.8 393.6 47.5 407 60.5L 417.2 70.5L 413.9 77C 408.5 87.4 401.6 97 394.6 104C 387.8 110.6 386.6 113.4 389.9 114.5C 395 116.1 410.2 103.3 420.5 88.8C 423.7 84.2 426.7 80.1 427 79.7C 427.4 79.3 430.8 81.5 434.6 84.6C 454.5 100.9 471.1 109 484.7 109C 493.9 109 500.5 104.8 499.8 99.4C 499.3 95.1 496.7 94.1 492.9 96.9C 490.5 98.7 488.5 99.3 485.2 99.1C 475.8 98.8 458.7 89.3 441 74.5L 433.2 68L 436.5 59.6C 440.2 50.6 444 37.1 444 33.2C 444 30.6 442.3 26.9 440.6 25.8C 438.6 24.4 434.3 25 432.7 26.8C 431.8 27.8 429.5 34 427.6 40.5C 422.1 59.6 423.7 58.8 413.5 47.4C 408.7 41.9 399.6 31.1 393.3 23.3C 387.1 15.5 381 8.40001 379.8 7.5C 376.5 5.2 371.3 5.49998 369.9 8.09999z"/>
    <path style="stroke:none; fill:#FFFFFF" d="M 287 14.9C 286.4 16.2 286.2 22.6 286.7 33.2C 287.2 46.4 287 51.6 285.5 60C 281.5 84.2 273.3 101.5 263.5 106.2C 259.4 108.2 259 108.2 256.6 106.7C 251.5 103.3 251.6 101.7 257.3 96.8C 272.9 83.3 272.4 62 256.5 62C 251.9 62 248.1 64 244.1 68.5C 239.6 73.7 237.9 78.4 237.1 87.9L 236.5 96.3L 230.7 98.8L 225 101.3L 220.7 97.3C 218.4 95.2 212.7 91.1 208 88.3C 199.9 83.4 193 77.7 193 76C 193 74.3 189.8 72 187.4 72C 184.2 72 179 77.1 179 80.2C 179 81.5 179.7 83.5 180.5 84.6C 181.3 85.6 182 87.3 182 88.4C 182 91.4 173.1 108.5 169.4 112.6C 166.3 115.9 165.7 116.2 164.5 114.9C 163.6 114 162.8 110.5 162.5 105.5C 161.6 93 161.1 91.1 158.5 89.4C 156.4 88 155.8 88 153.3 89.4C 151 90.5 148.7 94.2 142.7 106.2C 135.1 121.5 129.8 129.4 127.6 128.7C 126.9 128.5 126.1 123 125.4 114C 124.5 101 124.2 99.6 122.1 97.9C 118.7 95.1 110.2 95.5 96.5 99C 90.1 100.6 84.4 102 83.9 102C 83.4 102 83 96 83 88C 83 73.7 82.1 69.1 79.1 68.9C 76 68.7 74.5 69.2 72.6 71C 70.9 72.7 70.5 75.3 69.6 90.4L 68.5 108L 54.1 115.2C 46.1 119.2 38.1 123.9 36.3 125.7C 33.3 128.5 33 129.1 34 131.1C 35.8 134.4 41 133.2 55.6 126.1C 62.5 122.8 68.5 120.2 69 120.5C 69.4 120.7 70 126.1 70.4 132.3C 71.7 153.9 73.6 162 77.6 162C 81.8 162 82.4 159.1 83 135.6L 83.5 113.7L 92.5 110.3C 97.5 108.4 103.5 106.6 106 106.3C 112.8 105.5 113.4 106.7 114 122.6C 114.4 134 114.8 136.2 116.6 138.7C 119.2 142.1 122.8 143.5 126.6 142.6C 131.1 141.5 139.1 132.4 145.1 121.7C 148.1 116.4 150.8 112 151.1 112C 151.4 112 152.2 114.4 153 117.2C 154.5 123.4 158.6 128 162.5 128C 169.6 128 176.6 120.5 184.6 104C 187.8 97.4 190.8 92 191.3 92C 192.5 92 207.1 101.9 210.3 104.8C 213.7 108.1 213.7 109 209.9 112.6C 205.7 116.6 204 120.1 204 125C 204 135.1 215.5 136 223.8 126.6C 226.7 123.3 227.6 120.6 228.2 113.5C 228.5 110.5 231.9 107.8 237 106.5C 239.2 106 240 106.5 242.6 110.3C 248.3 118.3 258.8 121.2 266.9 117C 272.1 114.4 279 106.5 283.1 98.5C 286.5 92.1 288 90.5 288 93.5C 288 96.5 291.1 101 293.5 101.6C 298.8 102.9 302.8 97.7 306.8 84.4C 309.1 76.9 312.2 71.6 315.7 69.3C 317.6 68 318.1 68.1 319.9 69.9C 321.6 71.6 322 73.3 322 78.5C 322 87.2 320.2 91.1 312.6 99C 305.7 106.1 304.3 108.9 306 111.9C 307.3 114.4 312.6 115.5 316.2 114.1C 319.4 112.9 343.8 88.9 346.5 84.2C 348.9 80.3 350 80.1 350 83.8C 350 89.2 353.1 97.3 356.5 100.7C 359.3 103.5 360.5 104 364.5 104C 372.5 104 378 99.2 383.1 87.5C 385.7 81.6 386.7 70.3 385.1 64.5C 381.7 51.8 370.4 44.3 358.8 47C 356.2 47.7 352.9 49.3 351.4 50.6C 349.3 52.7 348.9 53.7 349.3 56.8C 349.7 59.9 348.9 61.8 344.9 68.5C 342.3 72.9 338.8 78 337.3 79.9L 334.4 83.2L 334.3 75.8C 334.2 63.8 330 57.8 321.1 56.4C 313.1 55.1 305.3 60 299.5 70L 296.9 74.5L 297.7 53.5C 298.9 22.5 298.6 17.7 295.4 14.6C 293.2 12.3 288.3 12.6 287 14.9zM 368.9 61.9C 371.7 64.7 373.3 71.6 372.7 78.5C 371.9 89.2 367.4 94.2 364.3 88C 361.9 83.2 363.4 60 366.1 60C 366.6 60 367.9 60.9 368.9 61.9zM 256 77C 256 81.6 254.1 86.9 251.7 88.9C 250.2 90.1 250 89.9 250 86.8C 250 81.6 252.8 73 254.5 73C 255.6 73 256 74.2 256 77z"/>
    <path style="stroke:none; fill:#FFFFFF" d="M 57.1 27.5C 37.2 33.1 13.7 49.6 7.7 62.2C 4.3 69.4 6 76.4 11.8 79.4C 21.8 84.5 33.2 82.1 69.7 67.1C 100.2 54.6 130.1 45.4 153 41.4C 165.2 39.3 182.8 39.2 189.3 41.3C 195 43.1 197 42.7 197 39.5C 197 36.4 193.6 32.3 188.7 29.7C 184.9 27.7 183.1 27.5 171 27.6C 143.4 27.8 118.4 34.6 62.6 57C 36 67.7 18.9 73.3 17.4 71.7C 15.9 70.3 20.3 63.9 27.5 57.2C 41.9 43.5 59.2 35.4 76.8 34C 87.2 33.2 89.4 31.9 86 28.5C 84.3 26.8 82.4 26.5 73.2 26.3C 66.1 26.1 60.7 26.5 57.1 27.5z"/>
  </g>
</svg>